<svg width="32" height="32" viewBox="0 0 32 32" fill="none" xmlns="http://www.w3.org/2000/svg">
<circle cx="16" cy="16" r="16" fill="#0D28A6"/>
<path d="M20.1667 7.66675H11.8334C9.53223 7.66675 7.66675 9.53223 7.66675 11.8334V20.1667C7.66675 22.4679 9.53223 24.3334 11.8334 24.3334H20.1667C22.4679 24.3334 24.3334 22.4679 24.3334 20.1667V11.8334C24.3334 9.53223 22.4679 7.66675 20.1667 7.66675Z" stroke="white" stroke-linecap="round" stroke-linejoin="round"/>
<path d="M19.3333 15.475C19.4361 16.1685 19.3176 16.8769 18.9947 17.4992C18.6718 18.1215 18.1609 18.6262 17.5346 18.9414C16.9083 19.2566 16.1986 19.3663 15.5064 19.2549C14.8142 19.1436 14.1747 18.8167 13.679 18.321C13.1832 17.8252 12.8564 17.1857 12.745 16.4935C12.6336 15.8013 12.7433 15.0916 13.0585 14.4653C13.3737 13.8391 13.8784 13.3281 14.5007 13.0052C15.1231 12.6823 15.8314 12.5638 16.5249 12.6667C17.2324 12.7716 17.8873 13.1012 18.393 13.6069C18.8987 14.1126 19.2283 14.7676 19.3333 15.475Z" stroke="white" stroke-linecap="round" stroke-linejoin="round"/>
<path d="M20.5833 11.4167H20.5916" stroke="white" stroke-linecap="round" stroke-linejoin="round"/>
</svg>
