<svg width="32" height="32" viewBox="0 0 32 32" fill="none" xmlns="http://www.w3.org/2000/svg">
<circle cx="16" cy="16" r="16" fill="#0D28A6"/>
<path d="M25.1666 8.50008C24.3686 9.06298 23.485 9.4935 22.5499 9.77508C22.048 9.198 21.381 8.78899 20.6391 8.60335C19.8972 8.41771 19.1162 8.46441 18.4017 8.73712C17.6871 9.00984 17.0736 9.49541 16.6441 10.1282C16.2145 10.7609 15.9897 11.5104 15.9999 12.2751V13.1084C14.5354 13.1464 13.0843 12.8216 11.7758 12.163C10.4672 11.5043 9.34185 10.5323 8.49992 9.33341C8.49992 9.33341 5.16659 16.8334 12.6666 20.1667C10.9504 21.3317 8.90588 21.9159 6.83325 21.8334C14.3333 26.0001 23.4999 21.8334 23.4999 12.2501C23.4991 12.018 23.4768 11.7864 23.4333 11.5584C24.2838 10.7197 24.8839 9.66067 25.1666 8.50008V8.50008Z" stroke="white" stroke-linecap="round" stroke-linejoin="round"/>
</svg>
